 <svg width="669" height="430" viewBox="0 0 669 430" fill="none" xmlns="http://www.w3.org/2000/svg" role="img">
            <path
                d="M640.744 364.245C641.481 342.251 631.417 320.397 611.839 312.903C616.504 335.381 612.544 360.667 600.882 382.866C596.339 391.513 590.444 400.78 592.063 409.599C593.07 415.087 596.97 419.338 601.651 422.035C606.332 424.732 611.786 426.072 617.174 427.385L618.128 428.322C630.149 408.25 640.007 386.239 640.744 364.245Z"
                fill="#F2F2F2"
            />
            <path
                d="M611.579 313.315C621.394 327.029 626.401 344.613 625.315 362.699C625.157 366.702 624.395 370.659 623.054 374.436C621.577 378.223 619.23 381.611 616.202 384.324C613.403 386.933 610.28 389.317 608.075 392.478C606.986 394.021 606.219 395.767 605.82 397.613C605.422 399.459 605.399 401.366 605.755 403.22C606.577 407.615 608.989 411.227 611.482 414.659C614.251 418.47 617.194 422.376 617.842 427.376C617.92 427.982 618.883 427.691 618.805 427.086C617.678 418.386 610.138 413.327 607.395 405.461C606.116 401.791 606.001 397.553 608.336 393.741C610.378 390.408 613.596 387.947 616.45 385.327C619.443 382.709 621.839 379.481 623.479 375.859C625 372.14 625.91 368.199 626.175 364.189C626.882 355.539 626.179 346.831 624.093 338.406C621.852 329.132 617.86 320.371 612.331 312.595C611.992 312.121 611.242 312.845 611.579 313.315Z"
                fill="white"
            />
            <path
                d="M625.971 356.795C629.126 356.066 631.975 354.372 634.122 351.949C636.268 349.525 637.606 346.493 637.95 343.273C637.998 342.647 637.028 342.679 636.979 343.306C636.665 346.303 635.418 349.127 633.416 351.38C631.413 353.633 628.754 355.201 625.814 355.864C625.752 355.874 625.693 355.896 625.64 355.928C625.586 355.961 625.54 356.004 625.503 356.055C625.467 356.105 625.441 356.163 625.426 356.224C625.412 356.285 625.41 356.348 625.421 356.41C625.431 356.471 625.454 356.53 625.487 356.583C625.521 356.636 625.564 356.682 625.615 356.718C625.667 356.753 625.725 356.779 625.786 356.792C625.847 356.805 625.91 356.807 625.971 356.795Z"
                fill="white"
            />
            <path
                d="M617.771 383.165C615.342 381.48 613.298 379.299 611.772 376.766C610.247 374.233 609.275 371.406 608.921 368.471C608.84 367.865 607.877 368.156 607.958 368.761C608.333 371.814 609.35 374.754 610.943 377.385C612.537 380.017 614.669 382.281 617.201 384.029C617.686 384.358 618.253 383.493 617.771 383.165Z"
                fill="white"
            />
            <path
                d="M620.738 329.889C619.647 330.402 618.442 330.628 617.239 330.545C616.036 330.462 614.874 330.073 613.863 329.415C613.384 329.079 612.817 329.944 613.293 330.278C614.413 331 615.696 331.428 617.025 331.523C618.354 331.617 619.685 331.375 620.895 330.819C621.022 330.778 621.13 330.695 621.203 330.584C621.276 330.474 621.31 330.341 621.298 330.209C621.287 330.149 621.263 330.091 621.228 330.041C621.192 329.991 621.146 329.949 621.093 329.918C621.039 329.888 620.98 329.87 620.919 329.864C620.857 329.859 620.796 329.867 620.738 329.889Z"
                fill="white"
            />
            <path
                d="M542.625 351.034C542.917 351.253 543.209 351.473 543.5 351.701C547.399 354.668 551.012 357.994 554.293 361.634C554.551 361.911 554.809 362.196 555.058 362.48C562.915 371.46 568.799 381.988 572.331 393.385C573.778 398.033 574.845 402.791 575.52 407.611C576.466 414.334 576.94 421.774 580.029 427.312C580.343 427.892 580.697 428.45 581.089 428.98L616.743 429.585C616.831 429.546 616.917 429.514 617.005 429.474L618.418 429.564C618.401 429.308 618.377 429.044 618.36 428.788C618.351 428.639 618.333 428.491 618.324 428.342C618.315 428.243 618.306 428.144 618.304 428.053C618.301 428.02 618.298 427.987 618.294 427.962C618.292 427.871 618.28 427.789 618.277 427.706C618.149 426.227 618.014 424.748 617.862 423.269C617.863 423.261 617.863 423.261 617.857 423.253C616.692 411.99 614.552 400.858 610.727 390.647C610.611 390.34 610.498 390.025 610.366 389.717C608.631 385.16 606.481 380.772 603.944 376.608C602.559 374.355 601.044 372.183 599.408 370.105C595.172 364.752 590.003 360.21 584.151 356.697C572.432 349.651 558.037 346.784 543.718 350.723C543.351 350.824 542.993 350.925 542.625 351.034Z"
                fill="#F2F2F2"
            />
            <path
                d="M542.631 351.493C559.648 355.315 574.774 364.819 584.82 378.382C587.1 381.3 588.842 384.601 589.967 388.129C590.967 391.803 590.955 395.679 589.931 399.346C589.046 402.908 587.738 406.506 587.714 410.101C587.693 411.86 588.089 413.6 588.869 415.177C589.649 416.754 590.791 418.124 592.202 419.175C595.604 421.811 599.932 422.923 604.224 423.857C608.989 424.894 613.966 425.892 617.582 429.066C618.02 429.451 618.693 428.658 618.256 428.274C611.965 422.752 602.225 423.723 595.015 419.777C591.651 417.936 588.97 414.982 588.713 410.844C588.489 407.226 589.834 403.514 590.761 399.911C591.807 396.328 591.961 392.543 591.208 388.887C590.282 385.296 588.68 381.914 586.488 378.923C581.725 372.202 575.786 366.398 568.956 361.793C561.05 356.415 552.193 352.59 542.857 350.522C542.269 350.39 542.047 351.362 542.631 351.493Z"
                fill="white"
            />
            <path
                d="M581.814 373.768C586.602 368.924 587.596 361.679 584.166 356.844C583.828 356.368 582.99 356.98 583.328 357.457C586.542 361.986 585.584 368.671 581.108 373.199C580.637 373.676 581.345 374.242 581.814 373.768Z"
                fill="white"
            />
            <path
                d="M590.61 397.566C587.616 397.895 584.586 397.611 581.705 396.733C578.823 395.855 576.15 394.401 573.848 392.458C573.409 392.075 572.735 392.868 573.174 393.25C575.575 395.267 578.36 396.774 581.361 397.682C584.362 398.589 587.516 398.877 590.632 398.528C591.261 398.469 591.235 397.508 590.61 397.566Z"
                fill="white"
            />
            <path
                d="M560.813 357.749C560.1 358.818 559.16 359.715 558.06 360.379C556.961 361.042 555.728 361.455 554.451 361.588C553.823 361.639 553.849 362.601 554.473 362.55C555.884 362.398 557.245 361.94 558.461 361.209C559.678 360.478 560.721 359.492 561.518 358.318C561.604 358.225 561.651 358.101 561.648 357.975C561.645 357.848 561.593 357.727 561.503 357.638C561.395 357.565 561.264 357.536 561.135 357.556C561.007 357.577 560.892 357.646 560.813 357.749Z"
                fill="white"
            />
            <path
                d="M532.017 339.27C532.092 339.186 531.524 339.115 530.47 339.054V303.695H479.428V306.541H456.451C453.757 306.544 451.174 307.616 449.269 309.521C447.364 311.426 446.292 314.009 446.289 316.703V331.328C446.291 334.022 447.362 336.606 449.268 338.512C451.173 340.417 453.757 341.488 456.451 341.49L480 341.521L490.34 341.536H491.052L501.399 341.552L530.3 341.591H532.791C533.154 341.181 531.669 339.68 532.017 339.27Z"
                fill="#3F3D56"
            />
            <path
                d="M532.569 339.927C530.881 342.388 529.513 342.298 528.316 340.705C527.687 339.789 527.18 338.795 526.808 337.748C523.171 328.421 520.791 307.024 513.932 314.506C512.578 315.984 511.202 317.449 509.822 318.899C507.256 321.597 504.576 324.526 501.92 327.114C501.919 327.122 501.98 326.834 501.971 326.84C500.662 328.122 501.648 317.04 501.13 313.921C501.02 313.248 500.84 312.947 500.554 313.216C500.532 312.913 500.518 312.611 500.52 312.305C500.517 311.823 500.541 311.342 500.593 310.863C500.636 310.422 500.695 309.977 500.779 309.529L523.205 189.608C523.796 186.467 525.373 183.596 527.707 181.412C530.041 179.228 533.011 177.845 536.184 177.464C537.687 177.297 539.207 177.351 540.694 177.623L544.776 178.386C546.388 178.688 547.938 179.254 549.365 180.063L549.372 180.064C552.099 181.602 554.276 183.954 555.601 186.79C556.925 189.626 557.331 192.805 556.76 195.883L532.569 339.927Z"
                fill="#3F3D56"
            />
            <path d="M341.064 408.235L330.535 403.199L344.998 359.19L360.537 366.623L341.064 408.235Z" fill="#A0616A" />
            <path
                d="M411.647 401.14C410.882 401.62 410.116 402.092 409.343 402.563C407.804 403.507 406.249 404.435 404.695 405.347C403.914 405.804 403.125 406.26 402.344 406.709V406.732L402.297 406.74L402.282 406.747L401.091 407.041L399.382 402.525L398.593 400.444L397.479 397.498L395.437 392.107L384.688 363.725L401.4 359.603L402.027 362.162H402.034L402.344 363.431L408.183 387.111L409.374 391.953L409.412 392.1L410.131 394.992L410.75 397.498L411.438 400.297L411.647 401.14Z"
                fill="#A0616A"
            />
            <path
                d="M511.349 301.466C510.289 303.168 509.206 304.861 508.116 306.54C506.09 309.664 504.009 312.742 501.875 315.774C501.875 315.781 501.867 315.781 501.859 315.789C500.614 316.943 499.239 317.947 497.761 318.782C497.699 318.829 497.629 318.859 497.567 318.898C496.479 319.5 495.32 319.965 494.118 320.282C493.685 320.391 493.244 320.499 492.811 320.607C491.249 320.978 489.702 321.296 488.163 321.574C485.425 322.061 482.718 322.409 480.027 322.626C479.811 322.649 479.594 322.664 479.378 322.68C468.311 323.492 457.537 322.185 446.293 320.043C440.74 318.991 435.071 317.73 429.201 316.423C427.283 315.99 425.358 315.565 423.409 315.139C423.262 315.109 423.107 315.07 422.952 315.039C420.168 314.428 417.338 313.825 414.437 313.229C410.787 312.479 407.021 311.752 403.108 311.064L403.386 316.578C403.618 320.82 404.499 325.001 406 328.975C407.671 333.863 408.993 337.73 406.201 345.78L404.855 349.678C405.553 351.614 405.792 353.685 405.555 355.728C405.317 357.772 404.609 359.733 403.487 361.457L403.216 361.867L414.437 390.257L415.164 392.098H409.418L402.35 392.105H390.37L373.085 357.427L372.258 355.772V355.687L374.044 289.046C374.068 288.458 374.114 287.863 374.191 287.275C374.506 284.603 375.35 282.02 376.674 279.678C377.998 277.336 379.775 275.281 381.902 273.633C383.94 272.04 386.274 270.868 388.768 270.186C391.263 269.504 393.869 269.324 396.433 269.657L402.35 270.423L414.437 271.985L422.952 273.091L423.122 273.114L448.234 276.363L450.036 269.016L450.368 268.892L460.94 265.017L497.505 251.615L497.598 251.584L500.003 250.702L500.289 251.166C500.375 251.305 500.46 251.445 500.537 251.584C502.914 255.846 504.85 260.339 506.314 264.994C508.776 272.599 510.803 280.337 512.385 288.172C512.455 288.512 512.516 288.822 512.571 289.1L512.594 289.185C512.617 289.317 512.632 289.402 512.64 289.425C513.483 292.936 512.895 297.221 511.349 301.466Z"
                fill="#2F2E41"
            />
            <path
                d="M512.885 276.907C512.769 276.412 512.622 275.909 512.467 275.422C511.239 271.732 509.809 268.112 508.183 264.579C506.358 260.558 504.169 256.25 501.563 251.587C500.302 249.329 498.946 246.98 497.495 244.541C496.768 243.319 496.012 242.074 495.229 240.806C495.198 240.748 495.165 240.691 495.128 240.636L494.904 240.265L458.726 245.106L445.253 246.908L444.449 253.621L444.256 255.284C444.248 255.284 444.248 255.284 444.256 255.291L443.714 259.823V259.831L442.995 265.817L442.933 265.809L422.942 263.218L402.339 260.55L391.272 259.119C388.707 258.785 386.102 258.965 383.607 259.647C381.112 260.329 378.778 261.501 376.74 263.095C374.614 264.743 372.837 266.798 371.514 269.141C370.19 271.483 369.346 274.065 369.03 276.737C368.96 277.278 368.914 277.835 368.891 278.384L358.45 303.124C352.203 317.92 348.224 333.574 346.649 349.558L338.992 374.035L340.083 374.135L356.308 375.643L360.592 376.045L370.028 362.272C371.103 360.702 372.123 359.085 373.075 357.43C374.641 354.727 376.033 351.927 377.243 349.047L397.652 300.479C399.23 300.75 400.792 301.008 402.339 301.253C409.493 302.413 416.36 303.359 422.942 304.091C444.341 306.481 462.871 306.666 479.367 304.64C483.999 304.076 488.477 303.333 492.8 302.413C494.386 302.08 495.951 301.722 497.495 301.338C497.858 301.253 498.214 301.168 498.57 301.075C501.766 300.251 504.704 298.638 507.116 296.384C509.528 294.131 511.336 291.308 512.374 288.175C513.614 284.544 513.792 280.635 512.885 276.907Z"
                fill="#2F2E41"
            />
            <path
                d="M344.423 401.05L333.031 395.59L331.245 394.731L328.391 401.738L308.469 406.123C307.484 406.339 306.594 406.864 305.928 407.622C305.263 408.38 304.858 409.331 304.771 410.336C304.685 411.34 304.922 412.346 305.448 413.207C305.974 414.067 306.762 414.737 307.696 415.118L327.161 423.06L333.341 417.5L331.825 424.963L339.156 427.956L347.192 402.38L344.423 401.05Z"
                fill="#2F2E41"
            />
            <path d="M414.438 390.258L415.164 392.098H414.438V390.258Z" fill="#2F2E41" />
            <path
                d="M278.327 256.409C278.327 252.264 276.935 248.9 275.226 248.892H146.468C144.751 248.9 143.366 252.264 143.359 256.409V427.048C143.359 427.433 143.215 427.804 142.957 428.089C142.698 428.374 142.343 428.553 141.96 428.59C140.709 428.71 139.459 428.822 138.208 428.925C138.177 428.925 138.146 428.933 138.115 428.933C137.435 428.995 136.754 429.041 136.073 429.095H136.066C135.716 428.448 135.37 427.795 135.028 427.137C134.912 426.915 134.852 426.668 134.852 426.418V246.657C134.852 245.512 134.898 244.36 134.975 243.223C135.086 241.662 135.279 240.108 135.555 238.568C136.862 231.383 139.817 226.518 143.173 226.503H278.513C279.003 226.506 279.487 226.609 279.936 226.805C280.596 227.096 281.192 227.514 281.692 228.034C282.37 228.739 282.95 229.533 283.416 230.393C285.071 233.309 286.255 237.655 286.672 242.713C286.672 242.759 286.68 242.806 286.68 242.852C286.788 244.105 286.842 245.381 286.835 246.657L286.943 263.23L287.012 273.114L287.221 304.126L287.299 315.139L287.639 428.206C287.639 428.616 287.476 429.01 287.186 429.3C286.896 429.59 286.502 429.753 286.092 429.753H279.874C279.464 429.753 279.071 429.59 278.78 429.3C278.49 429.01 278.327 428.616 278.327 428.206L278.327 256.409Z"
                fill="#3F3D56"
            />
            <path
                d="M186.535 180.525L177.579 219.933L171.856 226.202H167.727L184.744 154.552L185.585 166.724V166.732L186.535 180.525Z"
                fill="#3F3D56"
            />
            <path
                d="M229.638 220.8L177.095 220.467L172.432 220.436L169.106 220.413L165.232 220.39H165.201C164.639 220.391 164.1 220.613 163.7 221.008L157.158 227.551C157.013 227.694 156.895 227.861 156.81 228.046C156.769 228.098 156.735 228.155 156.709 228.216C156.568 228.545 156.509 228.904 156.539 229.261C156.569 229.618 156.686 229.962 156.88 230.263C157.074 230.564 157.339 230.813 157.652 230.987C157.964 231.162 158.315 231.256 158.674 231.263H226.738C227.146 231.262 227.546 231.145 227.891 230.926C228.236 230.707 228.512 230.395 228.687 230.026L229.22 228.866L230.319 226.507L231.564 223.847C231.697 223.564 231.765 223.255 231.765 222.942C231.762 222.377 231.537 221.836 231.14 221.436C230.742 221.035 230.203 220.807 229.638 220.8Z"
                fill="#3F3D56"
            />
            <path
                opacity="0.17"
                d="M229.22 228.864L228.682 230.028C228.508 230.396 228.233 230.707 227.889 230.926C227.545 231.145 227.146 231.262 226.739 231.264H158.672C158.314 231.258 157.963 231.163 157.65 230.989C157.337 230.815 157.072 230.566 156.879 230.265C156.685 229.964 156.568 229.62 156.539 229.263C156.509 228.906 156.568 228.548 156.71 228.219C156.734 228.158 156.768 228.1 156.809 228.049L229.22 228.864Z"
                fill="black"
            />
            <path opacity="0.17" d="M185.585 166.724V166.732L171.013 226.202H167.727L184.744 154.552L185.585 166.724Z" fill="black" />
            <path
                d="M203.474 177.623L182.848 20.6983C182.773 20.1102 182.467 19.5761 181.998 19.2135L167.799 1.44136L166.523 0.459191C166.05 0.101307 165.456 -0.0569652 164.868 0.0183631L162.733 0.304507C162.144 0.380401 161.61 0.687041 161.247 1.15695C160.885 1.62687 160.724 2.22157 160.8 2.81024L182.176 165.404V165.412L183.483 175.357L185.037 187.167V187.182L187.45 205.557C187.488 205.872 187.595 206.175 187.762 206.445C187.929 206.714 188.152 206.945 188.417 207.12C188.677 207.299 188.972 207.42 189.283 207.476C189.593 207.532 189.912 207.521 190.219 207.444L191.572 207.104C192.09 206.971 192.545 206.658 192.856 206.222L193.459 205.364L193.738 204.962L203.08 179.209C203.408 178.749 203.549 178.183 203.474 177.623Z"
                fill="#3F3D56"
            />
            <path
                opacity="0.17"
                d="M167.793 1.44224L193.737 204.965L193.455 205.364L192.854 206.22C192.544 206.656 192.089 206.969 191.57 207.102L190.215 207.443C189.908 207.519 189.589 207.529 189.277 207.473C188.966 207.418 188.67 207.297 188.409 207.119C188.148 206.941 187.927 206.71 187.761 206.441C187.596 206.172 187.488 205.871 187.447 205.557L160.8 2.81287C160.723 2.22414 160.883 1.62885 161.244 1.15786C161.606 0.686866 162.14 0.378719 162.728 0.301137L164.868 0.0198787C165.159 -0.0193488 165.454 -0.000394955 165.737 0.075637C166.02 0.151669 166.285 0.28326 166.516 0.462736L167.793 1.44224Z"
                fill="black"
            />
            <path d="M168.555 7.26074L182.323 26.9129L198.688 151.426L189.815 169.028L168.555 7.26074Z" fill="#5B98FF" />
            <path d="M464.454 428.458L455.012 428.635L481.255 337.471L490.697 340.387L464.454 428.458Z" fill="#3F3D56" />
            <path
                d="M526.383 428.633L516.947 428.455L491.055 341.536L490.699 340.391L496.755 338.52C497.953 338.543 499.199 338.558 500.482 338.574L501.403 341.551L526.383 428.633Z"
                fill="#3F3D56"
            />
            <path
                d="M410.472 392.491L398.535 396.627L396.662 397.274L399.564 404.261L388.493 421.394C387.945 422.241 387.682 423.24 387.743 424.247C387.803 425.253 388.184 426.214 388.83 426.989C389.475 427.764 390.352 428.312 391.331 428.553C392.31 428.794 393.341 428.716 394.272 428.329L413.693 420.277L414.171 411.978L418.345 418.347L425.661 415.315L413.375 391.488L410.472 392.491Z"
                fill="#2F2E41"
            />
            <path
                d="M338.017 136.604C338.583 137.706 339.383 138.671 340.363 139.431C341.342 140.191 342.476 140.726 343.685 141C344.894 141.274 346.148 141.28 347.359 141.017C348.57 140.754 349.709 140.228 350.695 139.478L375.795 156.14L375.843 140.484L352 127.062C350.629 125.489 348.728 124.473 346.659 124.208C344.589 123.943 342.494 124.446 340.77 125.622C339.046 126.798 337.814 128.566 337.307 130.59C336.799 132.614 337.052 134.753 338.017 136.604Z"
                fill="#A0616A"
            />
            <path
                d="M356.77 143.84L368.48 130.518L416.163 158.825L479.372 153.036C482.496 152.75 485.645 153.156 488.595 154.223C491.546 155.291 494.224 156.996 496.442 159.215C498.659 161.435 500.361 164.115 501.426 167.066C502.491 170.018 502.893 173.167 502.604 176.291C502.076 181.933 499.331 187.135 494.971 190.756C490.612 194.377 484.994 196.12 479.351 195.604L408.162 189.015L356.77 143.84Z"
                fill="#E6E6E6"
            />
            <path
                d="M503.478 144.046L503.368 143.908L473.493 140.96L453.308 176.516C435.956 197.729 448.565 212.358 449.32 214.533L443.297 242.303L444.647 251.597L445.321 254.357L514.071 290.281L499.94 243.206L513.737 200.277C516.796 190.785 517.461 180.684 515.671 170.873C513.881 161.062 509.692 151.846 503.478 144.046Z"
                fill="#E6E6E6"
            />
            <path
                d="M536.21 112.757C536.225 113.136 536.233 113.515 536.233 113.886C536.227 117.982 535.251 122.019 533.386 125.665C531.521 129.312 528.819 132.466 525.502 134.869C522.185 137.272 518.346 138.856 514.3 139.491C510.254 140.127 506.114 139.796 502.22 138.526L497.449 136.971C497.41 136.956 497.363 136.948 497.325 136.933L489.46 134.365C489.434 134.033 489.439 133.699 489.475 133.368C477.743 128.356 493.961 111.891 497.99 99.5248C498.616 97.5991 477.078 99.0376 478.099 97.3903C477.875 97.2743 477.65 97.1583 477.441 97.0423C481.08 91.3006 486.458 86.8724 492.791 84.4042C499.125 81.9359 506.081 81.557 512.645 83.3227C512.815 83.3613 512.993 83.4155 513.163 83.4619C528.445 83.8408 536.473 94.4901 536.473 108.318C536.472 109.802 536.384 111.284 536.21 112.757Z"
                fill="#2F2E41"
            />
            <path
                d="M522.967 118.202C520.916 124.481 516.456 129.689 510.567 132.681C504.677 135.673 497.841 136.204 491.56 134.156C490.849 133.924 490.153 133.661 489.472 133.367C483.756 130.918 479.164 126.418 476.598 120.754C474.032 115.089 473.678 108.67 475.606 102.757C476.217 100.875 477.053 99.0727 478.096 97.3901C481.298 92.205 486.289 88.3736 492.126 86.6213C497.963 84.8689 504.239 85.3172 509.768 87.8813C515.296 90.4454 519.693 94.9474 522.125 100.535C524.558 106.123 524.857 112.408 522.967 118.202Z"
                fill="#A0616A"
            />
            <path
                d="M497.443 136.971C497.404 136.956 497.358 136.948 497.319 136.933L489.454 134.365C489.428 134.033 489.433 133.699 489.469 133.367C489.703 130.778 491.521 128.066 493.961 125.138C495.532 123.266 496.624 121.04 497.144 118.651C497.663 116.263 497.593 113.784 496.941 111.428C496.289 109.073 495.074 106.911 493.4 105.13C491.727 103.348 489.645 102.001 487.335 101.203C487.268 101.18 487.201 101.156 487.134 101.133C484.036 100.099 481.015 98.8479 478.093 97.39C477.869 97.274 477.644 97.158 477.436 97.042C475.471 95.9593 474.048 94.8765 473.422 93.8402C474.358 90.9673 475.852 88.3071 477.816 86.0114C479.781 83.7157 482.179 81.8296 484.873 80.4607C487.567 79.0919 490.504 78.2672 493.517 78.0336C496.529 77.8001 499.558 78.1624 502.431 79.0998L506.994 80.5847C512.749 82.4548 517.53 86.5248 520.296 91.9068C523.513 94.2115 526.05 97.5989 528.037 101.597C538.029 121.658 518.741 143.808 497.443 136.971Z"
                fill="#2F2E41"
            />
            <path
                d="M512.506 258.297C512.505 259.657 512.093 260.985 511.323 262.106C510.552 263.228 509.46 264.089 508.19 264.577C507.588 264.808 506.954 264.948 506.311 264.994C506.141 265.01 505.963 265.017 505.793 265.017H492.808V328.016C492.615 328.272 492.413 328.527 492.212 328.782C491.099 330.205 489.97 331.628 488.825 333.028C488.578 333.337 488.33 333.639 488.09 333.94C487.711 334.397 487.34 334.853 486.969 335.301C486.837 335.456 486.714 335.603 486.59 335.758C485.956 336.516 485.322 337.274 484.672 338.031V338.039C484.664 338.047 484.664 338.047 484.664 338.055L484.339 338.426C483.821 339.037 483.303 339.656 482.769 340.266C482.045 339.864 481.404 339.326 480.882 338.681C480.559 338.293 480.284 337.867 480.063 337.413C480.055 337.405 480.055 337.397 480.047 337.382C480.038 337.364 480.03 337.346 480.024 337.328C479.59 336.423 479.368 335.431 479.374 334.428V265.017H450.265C449.405 265.023 448.554 264.857 447.759 264.53C446.757 264.13 445.866 263.494 445.163 262.675C444.46 261.856 443.966 260.879 443.722 259.828V259.82C443.359 258.293 443.551 256.687 444.263 255.288C444.256 255.281 444.256 255.281 444.263 255.281C444.564 254.67 444.964 254.113 445.447 253.633V253.626C445.447 253.618 445.447 253.618 445.454 253.61C446.081 252.969 446.829 252.46 447.655 252.112C448.481 251.764 449.368 251.585 450.265 251.584H505.793C507.573 251.585 509.28 252.293 510.538 253.551C511.797 254.81 512.505 256.517 512.506 258.297Z"
                fill="#3F3D56"
            />
            <path
                d="M549.482 128.272C546.765 127.764 543.975 127.796 541.27 128.366C538.566 128.936 536 130.034 533.72 131.596C531.439 133.157 529.489 135.153 527.98 137.469C526.471 139.784 525.433 142.374 524.925 145.091C524.028 149.891 524.827 154.852 527.186 159.127C529.545 163.402 533.316 166.724 537.854 168.525L531.526 202.361L544.732 204.831L558.726 130L549.482 128.272Z"
                fill="#3F3D56"
            />
            <path
                d="M530.472 103.392C536.451 103.392 541.299 98.5442 541.299 92.5645C541.299 86.5848 536.451 81.7373 530.472 81.7373C524.492 81.7373 519.645 86.5848 519.645 92.5645C519.645 98.5442 524.492 103.392 530.472 103.392Z"
                fill="#2F2E41"
            />
            <path
                d="M656.686 123.653C651.988 125.22 646.965 125.487 642.014 125.573C627.606 125.822 612.832 124.56 599.719 118.585C586.606 112.611 575.317 101.257 572.401 87.1443C571.145 81.0619 571.293 74.2872 567.46 69.4002C562.911 63.6001 553.769 62.8095 547.401 66.522C541.033 70.2344 537.314 77.459 536.233 84.7504L533.668 88.9208C533.728 91.6058 536.633 93.3914 539.307 93.6432C541.981 93.895 544.669 93.1582 547.348 93.3574C553.217 93.7939 558.002 98.8143 559.713 104.446C561.424 110.077 560.6 116.169 559.136 121.869C557.672 127.57 555.58 133.131 554.745 138.957C553.909 144.783 554.476 151.105 557.904 155.89C560.476 159.481 564.397 161.861 568.383 163.766C578.033 168.376 588.603 170.737 599.297 170.671C609.992 170.605 620.532 168.114 630.124 163.385C639.717 158.656 648.112 151.813 654.677 143.37C661.242 134.928 665.806 125.106 668.026 114.644C665.781 119.059 661.384 122.086 656.686 123.653Z"
                fill="#2F2E41"
            />
            <path
                d="M448.816 352.604H426.763C425.55 352.603 424.378 352.165 423.463 351.369C422.547 350.574 421.949 349.474 421.779 348.274C420.417 338.254 420.417 328.095 421.779 318.075C421.947 316.889 422.533 315.801 423.431 315.008C424.329 314.214 425.481 313.767 426.679 313.746C433.617 310.635 441.089 310.636 448.892 313.745C449.618 313.755 450.334 313.923 450.989 314.239C451.643 314.555 452.221 315.01 452.681 315.573C453.16 316.158 453.503 316.843 453.685 317.577C453.867 318.312 453.883 319.077 453.732 319.819C451.961 328.634 451.961 337.714 453.732 346.53C453.883 347.271 453.867 348.037 453.685 348.772C453.503 349.506 453.16 350.191 452.681 350.776C452.213 351.349 451.623 351.81 450.954 352.126C450.286 352.442 449.555 352.606 448.816 352.604Z"
                fill="#5B98FF"
            />
            <path
                d="M446.506 325.258H427.945C427.638 325.258 427.342 325.135 427.125 324.918C426.907 324.7 426.785 324.405 426.785 324.098C426.785 323.79 426.907 323.495 427.125 323.277C427.342 323.06 427.638 322.938 427.945 322.938H446.506C446.814 322.938 447.109 323.06 447.326 323.277C447.544 323.495 447.666 323.79 447.666 324.098C447.666 324.405 447.544 324.7 447.326 324.918C447.109 325.135 446.814 325.258 446.506 325.258Z"
                fill="white"
            />
            <path
                d="M446.506 334.538H427.945C427.638 334.538 427.342 334.416 427.125 334.198C426.907 333.981 426.785 333.685 426.785 333.378C426.785 333.07 426.907 332.775 427.125 332.558C427.342 332.34 427.638 332.218 427.945 332.218H446.506C446.814 332.218 447.109 332.34 447.326 332.558C447.544 332.775 447.666 333.07 447.666 333.378C447.666 333.685 447.544 333.981 447.326 334.198C447.109 334.416 446.814 334.538 446.506 334.538Z"
                fill="white"
            />
            <path
                d="M446.506 343.818H427.945C427.638 343.818 427.342 343.696 427.125 343.478C426.907 343.261 426.785 342.966 426.785 342.658C426.785 342.35 426.907 342.055 427.125 341.838C427.342 341.62 427.638 341.498 427.945 341.498H446.506C446.814 341.498 447.109 341.62 447.326 341.838C447.544 342.055 447.666 342.35 447.666 342.658C447.666 342.966 447.544 343.261 447.326 343.478C447.109 343.696 446.814 343.818 446.506 343.818Z"
                fill="white"
            />
            <path
                d="M185.297 106.794V106.791C185.32 106.603 185.416 106.432 185.564 106.313C185.713 106.195 185.901 106.139 186.09 106.158L305.406 106.476C305.595 106.458 305.782 106.515 305.929 106.634C306.076 106.752 306.171 106.924 306.194 107.111V107.114C306.17 107.302 306.074 107.473 305.926 107.592C305.778 107.71 305.59 107.766 305.401 107.747L186.084 107.429C185.896 107.447 185.708 107.39 185.561 107.272C185.414 107.153 185.319 106.981 185.297 106.794Z"
                fill="#3F3D56"
            />
            <path
                d="M216.848 180.279L211.781 185.852C211.547 186.049 211.26 186.175 210.955 186.215C210.651 186.254 210.342 186.205 210.064 186.074C209.224 185.777 208.476 185.264 207.896 184.588C204.275 180.479 200.211 176.783 195.776 173.569C195.048 173.055 194.466 172.359 194.091 171.551C193.938 171.291 193.861 170.994 193.868 170.692C193.874 170.391 193.965 170.097 194.129 169.844C194.179 166.796 195.896 164.907 199.234 164.229C199.819 163.62 201.141 163.851 202.326 164.775C207.199 168.578 211.78 172.742 216.028 177.233C217.071 178.336 217.423 179.646 216.848 180.279Z"
                fill="#5B98FF"
            />
            <path
                d="M203.83 168.285L199.566 172.975C199.419 173.137 199.064 173.054 198.773 172.79C198.482 172.525 198.366 172.18 198.513 172.018L202.777 167.328C202.924 167.166 203.279 167.249 203.57 167.513C203.861 167.778 203.977 168.123 203.83 168.285Z"
                fill="white"
            />
            <path
                d="M208.041 172.113L203.777 176.803C203.629 176.965 203.275 176.882 202.984 176.618C202.693 176.353 202.577 176.008 202.724 175.846L206.988 171.156C207.135 170.994 207.49 171.077 207.781 171.341C208.072 171.606 208.188 171.951 208.041 172.113Z"
                fill="white"
            />
            <path
                d="M212.252 175.941L207.988 180.631C207.84 180.793 207.485 180.71 207.195 180.446C206.904 180.182 206.788 179.836 206.935 179.674L211.199 174.984C211.346 174.822 211.701 174.905 211.992 175.17C212.283 175.434 212.399 175.779 212.252 175.941Z"
                fill="white"
            />
            <path
                d="M668.711 429.079C668.712 429.2 668.688 429.32 668.642 429.432C668.596 429.544 668.528 429.646 668.442 429.731C668.357 429.817 668.255 429.884 668.143 429.931C668.032 429.977 667.912 430 667.791 430H0.920314C0.676232 430 0.442144 429.903 0.269552 429.73C0.0969599 429.558 0 429.324 0 429.079C0 428.835 0.0969599 428.601 0.269552 428.429C0.442144 428.256 0.676232 428.159 0.920314 428.159H667.791C667.912 428.159 668.032 428.182 668.143 428.228C668.255 428.275 668.357 428.342 668.442 428.428C668.528 428.513 668.596 428.615 668.642 428.727C668.688 428.839 668.712 428.959 668.711 429.079Z"
                fill="#CCCCCC"
            />
            <path
                d="M455.278 324.414C456.345 323.784 457.261 322.927 457.961 321.905C458.661 320.882 459.129 319.718 459.33 318.495C459.532 317.273 459.463 316.02 459.129 314.827C458.794 313.634 458.202 312.528 457.394 311.588L472.538 285.544L456.908 286.425L444.923 311.022C443.434 312.484 442.533 314.441 442.391 316.523C442.249 318.605 442.875 320.667 444.152 322.318C445.428 323.968 447.266 325.094 449.316 325.48C451.367 325.867 453.488 325.487 455.278 324.414Z"
                fill="#A0616A"
            />
            <path
                d="M461.389 305.265L447.395 294.366L472.823 245.087L463.295 182.333C462.824 179.232 463.042 176.064 463.933 173.056C464.824 170.047 466.366 167.272 468.45 164.927C470.534 162.582 473.109 160.724 475.992 159.486C478.875 158.248 481.995 157.659 485.131 157.763C490.794 157.955 496.15 160.387 500.023 164.524C503.896 168.661 505.969 174.165 505.789 179.829L503.435 251.283L461.389 305.265Z"
                fill="#E6E6E6"
            />
            <path
                d="M340.026 149.991H292.773C291.506 149.99 290.292 149.486 289.397 148.591C288.501 147.695 287.998 146.481 287.996 145.215V82.6457C287.998 81.3793 288.501 80.1652 289.397 79.2697C290.292 78.3743 291.506 77.8706 292.773 77.8691H340.026C341.292 77.8706 342.507 78.3743 343.402 79.2697C344.298 80.1652 344.801 81.3793 344.803 82.6457V145.215C344.801 146.481 344.298 147.695 343.402 148.591C342.507 149.486 341.292 149.99 340.026 149.991Z"
                fill="#E6E6E6"
            />
            <path
                d="M336.703 146.011H296.093C294.968 146.009 293.89 145.562 293.095 144.767C292.3 143.972 291.853 142.894 291.852 141.769V86.0917C291.853 84.9673 292.3 83.8892 293.095 83.0942C293.89 82.2991 294.968 81.8519 296.093 81.8506H336.703C337.827 81.8519 338.905 82.2991 339.7 83.0942C340.496 83.8893 340.943 84.9673 340.944 86.0917V141.769C340.943 142.894 340.496 143.972 339.7 144.767C338.905 145.562 337.827 146.009 336.703 146.011Z"
                fill="white"
            />
            <path
                d="M332.653 92.4319H300.145C300.006 92.4323 299.867 92.4051 299.739 92.352C299.61 92.2989 299.492 92.2209 299.394 92.1224C299.295 92.0239 299.216 91.9069 299.163 91.7781C299.11 91.6493 299.082 91.5112 299.082 91.3717C299.082 91.2323 299.11 91.0941 299.163 90.9653C299.216 90.8365 299.295 90.7195 299.394 90.621C299.492 90.5226 299.61 90.4445 299.739 90.3914C299.867 90.3383 300.006 90.3112 300.145 90.3115H332.653C332.793 90.3112 332.931 90.3383 333.06 90.3914C333.189 90.4445 333.306 90.5226 333.405 90.621C333.503 90.7195 333.582 90.8365 333.635 90.9653C333.689 91.0941 333.716 91.2323 333.716 91.3717C333.716 91.5112 333.689 91.6493 333.635 91.7781C333.582 91.9069 333.503 92.0239 333.405 92.1224C333.306 92.2209 333.189 92.2989 333.06 92.352C332.931 92.4051 332.793 92.4323 332.653 92.4319Z"
                fill="#5B98FF"
            />
            <path
                d="M332.65 96.6205H300.142C299.861 96.6205 299.591 96.5088 299.393 96.31C299.194 96.1111 299.082 95.8414 299.082 95.5602C299.082 95.2791 299.194 95.0094 299.393 94.8105C299.591 94.6117 299.861 94.5 300.142 94.5H332.65C332.79 94.5 332.927 94.5274 333.056 94.5807C333.185 94.634 333.302 94.7121 333.4 94.8105C333.498 94.909 333.577 95.0259 333.63 95.1545C333.683 95.2831 333.711 95.421 333.711 95.5602C333.711 95.6995 333.683 95.8374 333.63 95.966C333.577 96.0946 333.498 96.2115 333.4 96.31C333.302 96.4084 333.185 96.4865 333.056 96.5398C332.927 96.5931 332.79 96.6205 332.65 96.6205Z"
                fill="#5B98FF"
            />
            <path
                d="M314.234 100.81H300.142C299.861 100.81 299.591 100.698 299.393 100.499C299.194 100.301 299.082 100.031 299.082 99.7497C299.082 99.4685 299.194 99.1988 299.393 99C299.591 98.8011 299.861 98.6895 300.142 98.6895H314.234C314.515 98.6895 314.785 98.8011 314.983 99C315.182 99.1988 315.294 99.4685 315.294 99.7497C315.294 100.031 315.182 100.301 314.983 100.499C314.785 100.698 314.515 100.81 314.234 100.81Z"
                fill="#5B98FF"
            />
            <path
                d="M332.653 109.585H300.145C300.006 109.586 299.867 109.558 299.739 109.505C299.61 109.452 299.492 109.374 299.394 109.276C299.295 109.177 299.216 109.06 299.163 108.931C299.11 108.803 299.082 108.665 299.082 108.525C299.082 108.386 299.11 108.247 299.163 108.119C299.216 107.99 299.295 107.873 299.394 107.774C299.492 107.676 299.61 107.598 299.739 107.545C299.867 107.492 300.006 107.464 300.145 107.465H332.653C332.793 107.464 332.931 107.492 333.06 107.545C333.189 107.598 333.306 107.676 333.405 107.774C333.503 107.873 333.582 107.99 333.635 108.119C333.689 108.247 333.716 108.386 333.716 108.525C333.716 108.665 333.689 108.803 333.635 108.931C333.582 109.06 333.503 109.177 333.405 109.276C333.306 109.374 333.189 109.452 333.06 109.505C332.931 109.558 332.793 109.586 332.653 109.585Z"
                fill="#E4E4E4"
            />
            <path
                d="M332.653 113.775H300.145C300.006 113.775 299.867 113.748 299.739 113.695C299.61 113.642 299.492 113.564 299.394 113.465C299.295 113.367 299.216 113.25 299.163 113.121C299.11 112.992 299.082 112.854 299.082 112.715C299.082 112.575 299.11 112.437 299.163 112.308C299.216 112.179 299.295 112.062 299.394 111.964C299.492 111.865 299.61 111.787 299.739 111.734C299.867 111.681 300.006 111.654 300.145 111.654H332.653C332.793 111.654 332.931 111.681 333.06 111.734C333.189 111.787 333.306 111.865 333.405 111.964C333.503 112.062 333.582 112.179 333.635 112.308C333.689 112.437 333.716 112.575 333.716 112.715C333.716 112.854 333.689 112.992 333.635 113.121C333.582 113.25 333.503 113.367 333.405 113.465C333.306 113.564 333.189 113.642 333.06 113.695C332.931 113.748 332.793 113.775 332.653 113.775Z"
                fill="#E4E4E4"
            />
            <path
                d="M314.234 117.964H300.142C299.861 117.964 299.591 117.853 299.393 117.654C299.194 117.455 299.082 117.185 299.082 116.904C299.082 116.623 299.194 116.353 299.393 116.154C299.591 115.955 299.861 115.844 300.142 115.844H314.234C314.515 115.844 314.785 115.955 314.983 116.154C315.182 116.353 315.294 116.623 315.294 116.904C315.294 117.185 315.182 117.455 314.983 117.654C314.785 117.853 314.515 117.964 314.234 117.964Z"
                fill="#E4E4E4"
            />
            <path
                d="M332.65 126.737H300.142C299.861 126.737 299.591 126.625 299.393 126.426C299.194 126.227 299.082 125.958 299.082 125.676C299.082 125.395 299.194 125.126 299.393 124.927C299.591 124.728 299.861 124.616 300.142 124.616H332.65C332.931 124.616 333.201 124.728 333.4 124.927C333.599 125.126 333.71 125.395 333.71 125.676C333.71 125.958 333.599 126.227 333.4 126.426C333.201 126.625 332.931 126.737 332.65 126.737Z"
                fill="#E4E4E4"
            />
            <path
                d="M332.65 130.927H300.142C299.861 130.927 299.591 130.815 299.393 130.617C299.194 130.418 299.082 130.148 299.082 129.867C299.082 129.586 299.194 129.316 299.393 129.117C299.591 128.918 299.861 128.807 300.142 128.807H332.65C332.931 128.807 333.201 128.918 333.4 129.117C333.599 129.316 333.711 129.586 333.711 129.867C333.711 130.148 333.599 130.418 333.4 130.617C333.201 130.815 332.931 130.927 332.65 130.927Z"
                fill="#E4E4E4"
            />
            <path
                d="M314.234 135.116H300.142C299.861 135.116 299.591 135.004 299.393 134.805C299.194 134.606 299.082 134.337 299.082 134.055C299.082 133.774 299.194 133.504 299.393 133.306C299.591 133.107 299.861 132.995 300.142 132.995H314.234C314.515 132.995 314.785 133.107 314.983 133.306C315.182 133.504 315.294 133.774 315.294 134.055C315.294 134.337 315.182 134.606 314.983 134.805C314.785 135.004 314.515 135.116 314.234 135.116Z"
                fill="#E4E4E4"
            />
            <path
                d="M266.746 191.146H208.458C207.548 191.147 206.675 191.509 206.031 192.153C205.387 192.797 205.024 193.67 205.023 194.58V230.87C205.024 231.78 205.387 232.654 206.031 233.297C206.675 233.941 207.548 234.304 208.458 234.305H266.746C267.656 234.304 268.529 233.941 269.173 233.298C269.817 232.654 270.18 231.78 270.181 230.87V194.58C270.18 193.67 269.817 192.797 269.173 192.153C268.529 191.509 267.656 191.147 266.746 191.146Z"
                fill="white"
            />
            <path
                d="M266.746 191.146H208.458C207.548 191.147 206.675 191.509 206.031 192.153C205.387 192.797 205.024 193.67 205.023 194.58V230.87C205.024 231.78 205.387 232.654 206.031 233.297C206.675 233.941 207.548 234.304 208.458 234.305H266.746C267.656 234.304 268.529 233.941 269.173 233.298C269.817 232.654 270.18 231.78 270.181 230.87V194.58C270.18 193.67 269.817 192.797 269.173 192.153C268.529 191.509 267.656 191.147 266.746 191.146ZM267.873 217.213C267.859 220.907 266.398 224.449 263.802 227.078C261.207 229.708 257.685 231.215 253.991 231.278C248.076 231.355 257.263 231.385 250.13 231.385C233.819 231.385 216.811 231.229 210.465 231.128C209.63 231.11 208.835 230.768 208.249 230.172C207.664 229.577 207.334 228.776 207.331 227.941V194.583C207.331 194.284 207.45 193.997 207.661 193.785C207.873 193.574 208.159 193.454 208.458 193.453H266.743C267.042 193.454 267.329 193.572 267.541 193.784C267.752 193.995 267.872 194.281 267.873 194.58V217.213Z"
                fill="#CACACA"
            />
            <path
                d="M259.055 214.307H214.646C214.253 214.306 213.87 214.185 213.549 213.958C213.228 213.732 212.984 213.412 212.852 213.042L205.993 193.799C205.891 193.512 205.859 193.205 205.9 192.903C205.941 192.6 206.055 192.313 206.23 192.063C206.406 191.814 206.639 191.61 206.909 191.47C207.18 191.329 207.48 191.256 207.785 191.255L267.345 191.149H267.347C267.662 191.149 267.973 191.228 268.25 191.377C268.528 191.527 268.764 191.743 268.937 192.006C269.111 192.269 269.216 192.571 269.244 192.885C269.272 193.199 269.222 193.515 269.098 193.804L260.806 213.153C260.659 213.495 260.415 213.787 260.104 213.993C259.793 214.198 259.428 214.307 259.055 214.307Z"
                fill="#CACACA"
            />
            <path
                d="M237.573 219.052C240.194 219.052 242.319 216.928 242.319 214.307C242.319 211.686 240.194 209.562 237.573 209.562C234.953 209.562 232.828 211.686 232.828 214.307C232.828 216.928 234.953 219.052 237.573 219.052Z"
                fill="#3F3D56"
            />
            <path
                d="M109.921 405.323C108.993 412.16 104.345 418.332 98.3668 422.361C96.9424 423.324 95.4393 424.164 93.8735 424.874C92.1519 425.651 90.3762 426.303 88.5604 426.823C80.5947 429.151 71.9871 429.252 63.6114 429.298C55.143 429.352 46.6772 429.406 38.2139 429.46C31.5397 429.499 24.649 429.499 18.4852 426.939C18.3931 426.905 18.3027 426.866 18.2145 426.823C12.159 424.209 7.00065 418.463 7.1476 411.889C7.20667 409.574 7.86192 407.312 9.05008 405.323C9.83658 403.987 10.7818 402.751 11.8652 401.642C15.2216 398.162 19.8773 395.432 24.2391 393.236C31.4315 389.624 39.5596 384.937 41.6632 377.513C41.8852 376.732 42.0353 375.932 42.1117 375.123C42.6067 370.019 40.1242 365.325 36.9611 361.125C36.6517 360.708 36.3269 360.29 35.9944 359.872C35.2829 358.983 34.5481 358.109 33.8212 357.274C33.5118 356.918 33.2025 356.555 32.8854 356.191C29.9621 352.804 27.0155 349.184 25.4765 345.14C24.814 343.446 24.4452 341.652 24.386 339.834C24.2159 333.268 31.5552 326.656 37.108 329.757C39.8303 329.494 42.5525 329.224 45.2748 328.945C48.6158 328.613 51.9413 328.28 55.2745 327.94H55.2822C56.0324 327.878 56.7671 327.801 57.5018 327.723C64.439 327.035 71.3709 326.342 78.2978 325.643C81.3758 325.341 84.9952 325.225 86.9982 327.592C89.1791 330.175 88.05 334.258 85.8923 336.865C83.7346 339.463 80.7416 341.304 78.7154 343.995C76.0937 347.475 75.4827 351.876 76.2329 356.191C76.4501 357.444 76.7762 358.676 77.2073 359.872C77.9645 362.009 79.0133 364.032 80.324 365.881C84.8714 372.254 91.6075 376.647 97.5857 381.697C103.572 386.755 109.171 393.174 109.991 400.954C110.014 401.178 110.037 401.41 110.045 401.642C110.132 402.87 110.09 404.104 109.921 405.323Z"
                fill="#E6E6E6"
            />
            <path
                d="M61.2787 334.509C55.2441 328.548 50.104 321.744 46.0181 314.31C41.9445 306.915 38.9357 298.981 37.0808 290.744C35.2003 282.384 34.5774 273.791 35.2329 265.247C36.592 247.847 43.0214 231.227 53.7261 217.443C54.3798 216.605 55.0491 215.779 55.7341 214.966C56.4977 214.057 57.7953 215.366 57.037 216.269C46.1133 229.367 39.2697 245.38 37.3528 262.328C35.9664 275.278 37.5145 288.375 41.882 300.645C46.2495 312.915 53.3244 324.044 62.5816 333.206C63.4273 334.04 62.1242 335.343 61.2787 334.509Z"
                fill="#E6E6E6"
            />
            <path
                d="M52.9844 219.007C53.7303 218.728 54.4609 218.41 55.1728 218.053C55.2087 218.108 55.2438 218.165 55.2799 218.22L52.9844 219.007Z"
                fill="#E6E6E6"
            />
            <path
                d="M67.2118 202.754C66.9102 204.443 66.3658 206.078 65.5954 207.611C63.4683 211.882 60.0802 215.397 55.8896 217.68C55.6576 217.804 55.4179 217.935 55.1781 218.051C54.892 217.603 54.5981 217.154 54.3197 216.706C52.3457 213.767 50.8864 210.514 50.0043 207.085C49.1072 203.056 49.5944 198.531 52.1774 195.307C54.7528 192.082 59.6714 190.635 63.2367 192.723C64.266 193.338 65.1394 194.183 65.7888 195.191C65.433 195.631 65.0772 196.064 64.7215 196.505C64.6902 196.546 64.6567 196.585 64.621 196.621C64.3116 197.008 63.9946 197.387 63.6852 197.774C62.3937 199.359 61.1099 200.952 59.8184 202.53C61.6387 202.865 63.4912 202.992 65.3402 202.909C65.4872 202.901 65.6418 202.893 65.7888 202.886C66.2606 202.855 66.74 202.816 67.2118 202.754Z"
                fill="#E6E6E6"
            />
            <path
                d="M41.1303 234.471L40.6354 240.921L40.5039 242.668C40.3647 242.599 40.2178 242.529 40.0786 242.46C35.2681 240.072 31.0226 236.685 27.6258 232.525C24.2289 228.366 21.7589 223.529 20.3808 218.338C19.92 216.538 19.5969 214.705 19.4141 212.855C21.9198 212.468 24.4332 212.074 26.939 211.687C24.9103 209.048 22.3692 206.846 19.4682 205.214C20.1297 198.76 22.462 192.589 26.2352 187.311C26.8848 198.122 38.207 204.998 42.3523 214.997C43.624 218.127 44.1745 221.502 43.963 224.873C43.7514 228.245 42.7833 231.525 41.1303 234.471Z"
                fill="#E6E6E6"
            />
            <path
                d="M38.9776 291.119C38.3743 291.15 37.7711 291.165 37.1756 291.157C32.029 291.125 26.9433 290.041 22.2302 287.973C17.5172 285.906 13.2762 282.897 9.76734 279.132C6.9269 276.021 4.64305 272.445 3.01581 268.56C3.06995 268.552 3.11635 268.544 3.17048 268.536C5.67621 268.15 8.18967 267.755 10.6954 267.369C8.03415 263.901 4.49715 261.205 0.448226 259.558C-0.0993621 256.063 -0.141039 252.508 0.324483 249.001C5.98556 258.227 19.218 258.97 27.5781 265.837C31.5651 269.161 34.2831 273.758 35.2731 278.853C35.5199 280.112 35.6519 281.391 35.6676 282.674C35.6753 282.983 35.6753 283.285 35.6676 283.586L35.8532 284.004L38.9776 291.119Z"
                fill="#E6E6E6"
            />
            <path
                d="M63.8523 301.8C62.2515 303.764 60.6506 305.744 59.0497 307.708C61.0179 308.07 63.0229 308.189 65.0201 308.064C63.2466 314.416 59.8419 320.194 55.1442 324.823C54.7034 325.256 54.2471 325.681 53.783 326.083C53.6902 326.168 53.5897 326.254 53.4969 326.339L53.0793 325.155L53.0715 325.148L50.705 318.597C47.7025 315.579 45.6233 311.766 44.7114 307.608V307.592C44.1567 305.158 44.0285 302.646 44.3324 300.168C45.6549 289.426 54.7343 279.766 52.476 269.179C57.4519 273.209 61.3125 278.446 63.6899 284.391C62.3984 285.976 61.1146 287.569 59.8231 289.147C61.6434 289.482 63.4959 289.609 65.3449 289.526C65.9926 292.144 66.3454 294.826 66.3967 297.523C66.4045 297.909 66.4045 298.288 66.3967 298.675C65.5847 299.68 64.7649 300.678 63.9529 301.683C63.9216 301.724 63.888 301.763 63.8523 301.8Z"
                fill="#E6E6E6"
            />
        </svg>