<svg width="847" height="430" viewBox="0 0 847 430" fill="none" xmlns="http://www.w3.org/2000/svg" role="img">
            <path
                d="M811.577 412.687C786.934 430.439 754.999 431.331 724.129 429.15C719.819 428.846 715.539 428.489 711.299 428.104C711.273 428.097 711.239 428.1 711.213 428.093C711.01 428.074 710.805 428.054 710.61 428.043C709.735 427.961 708.86 427.879 707.993 427.797L708.197 428.187L708.84 429.4C708.609 428.994 708.378 428.597 708.147 428.191C708.079 428.069 708.003 427.948 707.936 427.826C699.939 413.91 692.007 399.483 689.984 383.592C687.893 367.099 693.77 348.423 708.286 340.316C710.19 339.256 712.206 338.412 714.297 337.799C715.165 337.535 716.045 337.321 716.935 337.131C722.379 335.923 728.047 336.186 733.356 337.893C738.665 339.601 743.423 342.692 747.141 346.848C750.86 351.005 753.404 356.076 754.512 361.542C755.621 367.008 755.253 372.67 753.448 377.946C765.755 365.326 763.459 344.854 759.214 327.744C754.96 310.634 749.811 291.595 758.462 276.228C763.272 267.674 771.729 262.367 781.22 260.229C781.511 260.166 781.802 260.103 782.093 260.049C793.402 257.758 805.158 259.818 815.014 265.817C833.161 277.253 842.482 298.936 845.507 320.176C850.382 354.355 839.595 392.501 811.577 412.687Z"
                fill="#F2F2F2"
            />
            <path
                d="M803.619 357.897C802.904 365.436 801.092 372.831 798.243 379.847C795.617 386.056 792.077 391.838 787.742 397C778.885 407.655 767.173 415.665 754.454 421.002C744.729 424.985 734.539 427.723 724.127 429.151C719.817 428.847 715.537 428.49 711.297 428.105C711.271 428.098 711.237 428.101 711.211 428.094C711.008 428.075 710.803 428.055 710.608 428.044C709.733 427.962 708.858 427.88 707.991 427.798L708.195 428.188L708.838 429.401C708.607 428.995 708.376 428.598 708.145 428.192C708.077 428.07 708.001 427.949 707.934 427.827C715.739 420.05 721.567 410.515 724.929 400.022C728.291 389.528 729.089 378.382 727.256 367.517C725.337 356.728 720.897 346.546 714.295 337.8C715.163 337.536 716.043 337.322 716.933 337.132C719.442 340.562 721.643 344.207 723.509 348.025C730.208 361.639 732.345 377.048 729.604 391.971C727.056 405.475 720.708 417.972 711.306 427.994C712.129 427.936 712.96 427.869 713.774 427.795C729.183 426.49 744.56 423.177 758.537 416.392C770.483 410.733 780.855 402.222 788.738 391.611C797.202 379.937 800.932 365.896 801.573 351.624C802.252 336.346 800.27 320.798 796.783 305.94C793.222 290.707 787.811 275.968 780.67 262.05C780.511 261.734 780.478 261.369 780.58 261.03C780.682 260.691 780.91 260.405 781.218 260.23C781.474 260.057 781.788 259.992 782.091 260.05C782.24 260.089 782.378 260.161 782.494 260.261C782.611 260.361 782.704 260.486 782.765 260.627C783.646 262.346 784.511 264.067 785.343 265.807C792.269 280.298 797.369 295.593 800.524 311.341C803.587 326.534 805.222 342.426 803.619 357.897Z"
                fill="white"
            />
            <path
                d="M481.852 420.531C494.44 429.6 510.753 430.055 526.522 428.941C528.724 428.786 530.91 428.603 533.076 428.407C533.089 428.403 533.106 428.404 533.12 428.401C533.224 428.391 533.328 428.381 533.428 428.375C533.875 428.333 534.322 428.292 534.765 428.25L534.66 428.449L534.332 429.069C534.45 428.861 534.568 428.658 534.686 428.451C534.721 428.389 534.76 428.327 534.794 428.265C538.879 421.156 542.93 413.786 543.964 405.669C545.032 397.244 542.03 387.704 534.615 383.563C533.642 383.021 532.613 382.59 531.544 382.277C531.101 382.142 530.651 382.033 530.197 381.936C527.416 381.318 524.521 381.453 521.809 382.325C519.097 383.198 516.666 384.776 514.767 386.9C512.868 389.023 511.568 391.613 511.002 394.405C510.436 397.197 510.623 400.09 511.545 402.785C505.259 396.339 506.431 385.881 508.6 377.141C510.773 368.401 513.403 358.675 508.984 350.825C507.733 348.72 506.05 346.903 504.046 345.494C502.043 344.086 499.764 343.117 497.359 342.652C497.21 342.62 497.062 342.588 496.913 342.561C491.136 341.391 485.131 342.443 480.096 345.507C470.826 351.349 466.065 362.425 464.52 373.275C462.03 390.734 467.54 410.22 481.852 420.531Z"
                fill="#F2F2F2"
            />
            <path
                d="M485.919 392.543C486.285 396.395 487.21 400.172 488.665 403.756C490.007 406.928 491.815 409.881 494.03 412.518C498.634 417.908 504.466 422.112 511.034 424.779C516.001 426.814 521.206 428.212 526.525 428.941C528.727 428.786 530.913 428.604 533.079 428.407C533.092 428.404 533.11 428.405 533.123 428.402C533.227 428.392 533.331 428.382 533.431 428.376C533.878 428.334 534.325 428.292 534.768 428.25L534.663 428.45L534.335 429.069C534.453 428.862 534.571 428.659 534.689 428.452C534.724 428.389 534.763 428.327 534.797 428.265C530.81 424.292 527.833 419.422 526.115 414.062C524.398 408.701 523.991 403.008 524.927 397.458C525.907 391.947 528.175 386.745 531.548 382.277C531.104 382.143 530.655 382.033 530.2 381.937C528.918 383.689 527.794 385.551 526.841 387.501C523.419 394.455 522.327 402.326 523.727 409.949C525.029 416.847 528.272 423.231 533.075 428.351C532.654 428.321 532.229 428.287 531.814 428.249C523.899 427.726 516.149 425.751 508.948 422.424C502.846 419.533 497.548 415.186 493.521 409.765C489.197 403.802 487.292 396.63 486.964 389.339C486.713 381.485 487.536 373.634 489.411 366.003C491.23 358.222 493.994 350.692 497.642 343.583C497.723 343.422 497.74 343.235 497.688 343.062C497.636 342.889 497.519 342.743 497.362 342.653C497.231 342.565 497.071 342.532 496.916 342.561C496.84 342.581 496.77 342.618 496.71 342.669C496.65 342.72 496.603 342.784 496.572 342.856C496.122 343.734 495.68 344.613 495.255 345.502C491.717 352.904 489.112 360.717 487.5 368.762C485.785 376.565 485.252 384.582 485.919 392.543Z"
                fill="white"
            />
            <path
                d="M146.211 11.7842H15.156C11.1381 11.7899 7.28642 13.3885 4.44536 16.2295C1.60429 19.0706 0.00568384 22.9223 0 26.9402V232.883C0.0056862 236.901 1.60429 240.753 4.44536 243.594C7.28642 246.435 11.1381 248.033 15.156 248.039H146.211C150.228 248.033 154.08 246.435 156.921 243.594C159.762 240.753 161.361 236.901 161.367 232.883V26.9402C161.361 22.9223 159.762 19.0706 156.921 16.2296C154.08 13.3885 150.228 11.7899 146.211 11.7842ZM159.584 232.883C159.579 236.429 158.169 239.828 155.662 242.334C153.155 244.841 149.756 246.252 146.211 246.256H15.156C11.6106 246.252 8.21163 244.841 5.70466 242.334C3.19768 239.828 1.78737 236.429 1.78306 232.883V26.9402C1.78737 23.3948 3.19768 19.9958 5.70466 17.4888C8.21163 14.9819 11.6106 13.5715 15.156 13.5672H146.211C149.756 13.5715 153.155 14.9819 155.662 17.4888C158.169 19.9958 159.579 23.3948 159.584 26.9402V232.883Z"
                fill="#3F3D56"
            />
            <path
                d="M427.043 248.039H295.988C291.97 248.035 288.117 246.436 285.276 243.595C282.435 240.754 280.837 236.901 280.832 232.883V26.9402C280.837 22.9219 282.435 19.0696 285.276 16.2283C288.117 13.3869 291.97 11.7887 295.988 11.7842H427.043C431.061 11.7887 434.913 13.3869 437.755 16.2283C440.596 19.0696 442.194 22.9219 442.199 26.9402V232.883C442.194 236.901 440.596 240.754 437.755 243.595C434.913 246.436 431.061 248.035 427.043 248.039ZM295.988 13.5672C292.443 13.5712 289.043 14.9815 286.536 17.4885C284.029 19.9955 282.619 23.3947 282.615 26.9402V232.883C282.619 236.429 284.029 239.828 286.536 242.335C289.043 244.842 292.443 246.252 295.988 246.256H427.043C430.588 246.252 433.987 244.842 436.494 242.335C439.001 239.828 440.412 236.429 440.416 232.883V26.9402C440.412 23.3947 439.001 19.9955 436.494 17.4885C433.987 14.9815 430.588 13.5712 427.043 13.5672H295.988Z"
                fill="#3F3D56"
            />
            <path
                d="M238.931 131.249H184.548C184.311 131.249 184.085 131.155 183.917 130.988C183.75 130.821 183.656 130.594 183.656 130.357C183.656 130.121 183.75 129.894 183.917 129.727C184.085 129.56 184.311 129.466 184.548 129.466H238.931C239.167 129.466 239.394 129.56 239.561 129.727C239.729 129.894 239.823 130.121 239.823 130.357C239.823 130.594 239.729 130.821 239.561 130.988C239.394 131.155 239.167 131.249 238.931 131.249Z"
                fill="#3F3D56"
            />
            <path
                d="M227.341 155.7C227.155 155.7 226.973 155.641 226.821 155.533C226.67 155.424 226.556 155.27 226.496 155.094C226.436 154.917 226.434 154.726 226.488 154.547C226.543 154.369 226.652 154.212 226.8 154.099L255.172 132.485C255.5 132.235 255.765 131.913 255.948 131.544C256.131 131.175 256.226 130.769 256.226 130.357C256.226 129.946 256.131 129.539 255.948 129.17C255.765 128.801 255.5 128.479 255.172 128.23L226.8 106.616C226.613 106.472 226.49 106.26 226.458 106.026C226.427 105.792 226.489 105.555 226.632 105.367C226.776 105.179 226.987 105.056 227.222 105.024C227.456 104.992 227.693 105.054 227.881 105.197L256.252 126.812C256.798 127.228 257.241 127.764 257.546 128.379C257.85 128.994 258.009 129.671 258.009 130.357C258.009 131.044 257.85 131.721 257.546 132.336C257.241 132.951 256.798 133.487 256.252 133.903L227.881 155.517C227.726 155.636 227.536 155.7 227.341 155.7Z"
                fill="#3F3D56"
            />
            <path
                d="M518.869 131.249H464.485C464.249 131.249 464.022 131.155 463.855 130.988C463.688 130.821 463.594 130.594 463.594 130.357C463.594 130.121 463.688 129.894 463.855 129.727C464.022 129.56 464.249 129.466 464.485 129.466H518.869C519.105 129.466 519.332 129.56 519.499 129.727C519.666 129.894 519.76 130.121 519.76 130.357C519.76 130.594 519.666 130.821 519.499 130.988C519.332 131.155 519.105 131.249 518.869 131.249Z"
                fill="#3F3D56"
            />
            <path
                d="M507.279 155.7C507.092 155.7 506.91 155.641 506.759 155.533C506.607 155.424 506.493 155.27 506.434 155.094C506.374 154.917 506.371 154.726 506.426 154.547C506.48 154.369 506.59 154.212 506.738 154.099L535.109 132.485C535.437 132.235 535.703 131.913 535.885 131.544C536.068 131.175 536.163 130.769 536.163 130.357C536.163 129.946 536.068 129.539 535.885 129.17C535.703 128.801 535.437 128.479 535.109 128.23L506.738 106.616C506.55 106.472 506.427 106.26 506.396 106.026C506.364 105.792 506.427 105.555 506.57 105.367C506.713 105.179 506.925 105.056 507.159 105.024C507.393 104.992 507.63 105.054 507.818 105.197L536.19 126.812C536.736 127.228 537.178 127.764 537.483 128.379C537.788 128.994 537.946 129.671 537.946 130.357C537.946 131.044 537.788 131.721 537.483 132.336C537.178 132.951 536.736 133.487 536.19 133.903L507.818 155.517C507.664 155.636 507.474 155.7 507.279 155.7Z"
                fill="#3F3D56"
            />
            <path
                d="M377.563 95.1418H346.359C344.35 95.1395 342.424 94.3404 341.003 92.9197C339.583 91.4991 338.783 89.5729 338.781 87.5638V57.2518C338.783 55.2427 339.583 53.3165 341.003 51.8958C342.424 50.4752 344.35 49.6761 346.359 49.6738H377.563C379.572 49.6761 381.498 50.4752 382.919 51.8958C384.339 53.3165 385.138 55.2427 385.141 57.2518V87.5638C385.138 89.5729 384.339 91.4991 382.919 92.9197C381.498 94.3404 379.572 95.1395 377.563 95.1418Z"
                fill="#5B98FF"
            />
            <path
                d="M383.357 94.6965C383.24 94.6966 383.124 94.6736 383.015 94.6288C382.907 94.584 382.809 94.5182 382.726 94.4353L339.933 51.6419C339.85 51.5591 339.785 51.4608 339.74 51.3527C339.695 51.2445 339.672 51.1286 339.672 51.0115C339.672 50.8945 339.695 50.7786 339.74 50.6704C339.785 50.5623 339.85 50.464 339.933 50.3812C340.016 50.2984 340.114 50.2328 340.222 50.188C340.33 50.1432 340.446 50.1201 340.563 50.1201C340.68 50.1201 340.796 50.1432 340.904 50.188C341.013 50.2328 341.111 50.2984 341.194 50.3812L383.987 93.1746C384.112 93.2993 384.197 93.4581 384.231 93.631C384.265 93.8039 384.248 93.9831 384.18 94.146C384.113 94.3089 383.999 94.4481 383.852 94.5461C383.705 94.6441 383.533 94.6964 383.357 94.6965Z"
                fill="white"
            />
            <path
                d="M340.563 94.6974C340.387 94.6974 340.215 94.645 340.068 94.5471C339.921 94.4491 339.807 94.3099 339.74 94.147C339.672 93.9841 339.655 93.8049 339.689 93.632C339.723 93.4591 339.808 93.3002 339.933 93.1756L382.726 50.3822C382.809 50.2994 382.907 50.2337 383.015 50.1889C383.124 50.1441 383.24 50.1211 383.357 50.1211C383.474 50.1211 383.59 50.1442 383.698 50.1889C383.806 50.2337 383.904 50.2994 383.987 50.3822C384.07 50.465 384.135 50.5632 384.18 50.6714C384.225 50.7795 384.248 50.8954 384.248 51.0125C384.248 51.1296 384.225 51.2455 384.18 51.3537C384.135 51.4618 384.07 51.5601 383.987 51.6429L341.194 94.4362C341.111 94.5191 341.013 94.5849 340.904 94.6297C340.796 94.6746 340.68 94.6976 340.563 94.6974Z"
                fill="white"
            />
            <path
                d="M390.492 141.947H332.543C329.587 141.947 326.752 140.773 324.662 138.683C322.573 136.593 321.398 133.759 321.398 130.803C321.398 127.848 322.573 125.013 324.662 122.923C326.752 120.833 329.587 119.659 332.543 119.659H390.492C393.447 119.659 396.282 120.833 398.372 122.923C400.462 125.013 401.636 127.848 401.636 130.803C401.636 133.759 400.462 136.593 398.372 138.683C396.282 140.773 393.447 141.947 390.492 141.947ZM332.543 121.442C330.06 121.442 327.679 122.428 325.923 124.184C324.168 125.94 323.181 128.321 323.181 130.803C323.181 133.286 324.168 135.667 325.923 137.423C327.679 139.178 330.06 140.164 332.543 140.164H390.492C392.975 140.164 395.356 139.178 397.111 137.423C398.867 135.667 399.853 133.286 399.853 130.803C399.853 128.321 398.867 125.94 397.111 124.184C395.356 122.428 392.975 121.442 390.492 121.442H332.543Z"
                fill="#3F3D56"
            />
            <path
                d="M390.492 175.825H332.543C329.587 175.825 326.752 174.651 324.662 172.561C322.573 170.471 321.398 167.637 321.398 164.681C321.398 161.726 322.573 158.891 324.662 156.801C326.752 154.711 329.587 153.537 332.543 153.537H390.492C393.447 153.537 396.282 154.711 398.372 156.801C400.462 158.891 401.636 161.726 401.636 164.681C401.636 167.637 400.462 170.471 398.372 172.561C396.282 174.651 393.447 175.825 390.492 175.825ZM332.543 155.32C330.06 155.32 327.679 156.306 325.923 158.062C324.168 159.817 323.181 162.199 323.181 164.681C323.181 167.164 324.168 169.545 325.923 171.3C327.679 173.056 330.06 174.042 332.543 174.042H390.492C392.975 174.042 395.356 173.056 397.111 171.3C398.867 169.545 399.853 167.164 399.853 164.681C399.853 162.199 398.867 159.817 397.111 158.062C395.356 156.306 392.975 155.32 390.492 155.32H332.543Z"
                fill="#3F3D56"
            />
            <path
                d="M390.492 209.703H332.543C329.587 209.703 326.752 208.529 324.662 206.439C322.573 204.349 321.398 201.515 321.398 198.559C321.398 195.604 322.573 192.769 324.662 190.679C326.752 188.589 329.587 187.415 332.543 187.415H390.492C393.447 187.415 396.282 188.589 398.372 190.679C400.462 192.769 401.636 195.604 401.636 198.559C401.636 201.515 400.462 204.349 398.372 206.439C396.282 208.529 393.447 209.703 390.492 209.703ZM332.543 189.198C330.06 189.198 327.679 190.184 325.923 191.94C324.168 193.695 323.181 196.076 323.181 198.559C323.181 201.042 324.168 203.423 325.923 205.178C327.679 206.934 330.06 207.92 332.543 207.92H390.492C392.975 207.92 395.356 206.934 397.111 205.178C398.867 203.423 399.853 201.042 399.853 198.559C399.853 196.076 398.867 193.695 397.111 191.94C395.356 190.184 392.975 189.198 390.492 189.198H332.543Z"
                fill="#3F3D56"
            />
            <path
                d="M696.129 0.201369L566.843 21.6585C562.881 22.3219 559.343 24.5296 557.005 27.7975C554.667 31.0654 553.721 35.1268 554.373 39.0914L588.092 242.255C588.755 246.218 590.963 249.756 594.231 252.094C597.498 254.431 601.56 255.378 605.524 254.725L734.811 233.268C738.773 232.605 742.311 230.397 744.649 227.129C746.986 223.861 747.933 219.8 747.281 215.835L713.562 12.6714C712.899 8.70868 710.691 5.17071 707.423 2.83314C704.155 0.495572 700.094 -0.450852 696.129 0.201369ZM745.522 216.127C746.098 219.626 745.263 223.21 743.2 226.093C741.138 228.977 738.016 230.925 734.519 231.509L605.232 252.966C601.734 253.543 598.15 252.708 595.267 250.645C592.383 248.582 590.435 245.46 589.851 241.963L556.132 38.7994C555.556 35.3012 556.391 31.7172 558.453 28.8336C560.516 25.95 563.638 24.0022 567.135 23.4175L696.421 1.96037C699.92 1.38415 703.504 2.21894 706.387 4.28163C709.271 6.34432 711.219 9.4665 711.803 12.9634L745.522 216.127Z"
                fill="#3F3D56"
            />
            <path
                d="M673.359 83.5088L616.191 92.9967C613.276 93.4806 610.287 92.7864 607.883 91.0669C605.479 89.3473 603.857 86.7432 603.373 83.8275C602.889 80.9118 603.583 77.9233 605.303 75.5194C607.022 73.1155 609.626 71.4931 612.542 71.0092L669.71 61.5214C672.624 61.0394 675.611 61.7347 678.014 63.4543C680.416 65.1739 682.038 67.7771 682.521 70.6916C683.005 73.6062 682.312 76.5936 680.593 78.997C678.875 81.4005 676.273 83.0233 673.359 83.5088ZM612.834 72.7682C610.385 73.1752 608.199 74.5382 606.755 76.5573C605.311 78.5764 604.728 81.0864 605.134 83.5352C605.541 85.9841 606.903 88.1712 608.922 89.6157C610.941 91.0601 613.451 91.6435 615.899 91.2377L673.067 81.7498C675.516 81.3429 677.702 79.9799 679.146 77.9608C680.59 75.9416 681.173 73.4316 680.767 70.9828C680.36 68.534 678.998 66.3469 676.979 64.9024C674.96 63.458 672.45 62.8745 670.002 63.2804L612.834 72.7682Z"
                fill="#CCCCCC"
            />
            <path
                d="M680.072 123.965L622.905 133.453C621.461 133.693 619.983 133.647 618.557 133.317C617.131 132.986 615.784 132.378 614.593 131.526C613.402 130.675 612.39 129.597 611.616 128.354C610.842 127.112 610.32 125.729 610.08 124.285C609.84 122.841 609.888 121.363 610.219 119.937C610.551 118.511 611.16 117.164 612.012 115.974C612.864 114.783 613.942 113.773 615.185 112.999C616.428 112.225 617.811 111.704 619.256 111.465L676.423 101.978C679.339 101.494 682.327 102.188 684.731 103.907C687.135 105.627 688.758 108.231 689.242 111.147C689.725 114.062 689.031 117.051 687.312 119.455C685.592 121.859 682.988 123.481 680.072 123.965ZM619.548 113.224C617.099 113.632 614.913 114.995 613.47 117.014C612.026 119.033 611.444 121.543 611.85 123.991C612.256 126.44 613.618 128.626 615.637 130.071C617.655 131.515 620.164 132.099 622.613 131.694L679.78 122.206C682.229 121.799 684.415 120.435 685.859 118.416C687.302 116.397 687.885 113.888 687.478 111.439C687.072 108.991 685.71 106.804 683.691 105.36C681.673 103.915 679.164 103.331 676.715 103.737L619.548 113.224Z"
                fill="#CCCCCC"
            />
            <path
                d="M686.787 164.423L629.62 173.911C628.176 174.151 626.698 174.105 625.272 173.774C623.846 173.444 622.499 172.835 621.308 171.984C620.117 171.133 619.105 170.055 618.331 168.812C617.557 167.57 617.035 166.187 616.795 164.743C616.555 163.298 616.602 161.821 616.934 160.395C617.265 158.969 617.875 157.622 618.727 156.432C619.579 155.241 620.657 154.23 621.9 153.457C623.143 152.683 624.526 152.162 625.971 151.923L683.138 142.435C686.053 141.954 689.04 142.649 691.442 144.368C693.845 146.088 695.466 148.691 695.95 151.606C696.433 154.52 695.74 157.508 694.022 159.911C692.304 162.315 689.701 163.937 686.787 164.423ZM626.263 153.682C625.05 153.883 623.888 154.321 622.845 154.971C621.801 155.621 620.895 156.47 620.18 157.47C619.465 158.47 618.953 159.601 618.675 160.799C618.397 161.996 618.357 163.237 618.558 164.45C618.76 165.663 619.198 166.824 619.848 167.868C620.498 168.911 621.348 169.816 622.348 170.532C623.348 171.247 624.479 171.758 625.677 172.036C626.874 172.314 628.115 172.353 629.328 172.152L686.495 162.664C687.708 162.463 688.87 162.025 689.914 161.375C690.958 160.726 691.864 159.876 692.579 158.876C693.295 157.876 693.807 156.745 694.085 155.547C694.363 154.35 694.403 153.109 694.202 151.896C694 150.683 693.562 149.521 692.912 148.478C692.261 147.434 691.412 146.529 690.411 145.814C689.411 145.098 688.28 144.587 687.082 144.309C685.884 144.032 684.643 143.993 683.43 144.194L626.263 153.682Z"
                fill="#CCCCCC"
            />
            <path
                d="M693.503 204.879L636.336 214.367C634.892 214.606 633.415 214.559 631.99 214.228C630.564 213.897 629.218 213.288 628.028 212.437C626.837 211.586 625.826 210.508 625.053 209.266C624.279 208.024 623.757 206.641 623.518 205.198C623.278 203.754 623.325 202.277 623.656 200.852C623.987 199.426 624.596 198.08 625.447 196.889C626.299 195.699 627.376 194.688 628.618 193.914C629.861 193.141 631.243 192.619 632.687 192.379L689.854 182.892C692.769 182.41 695.756 183.105 698.158 184.824C700.561 186.544 702.182 189.147 702.666 192.062C703.149 194.976 702.456 197.964 700.738 200.367C699.02 202.771 696.417 204.393 693.503 204.879ZM632.979 194.138C631.766 194.34 630.605 194.778 629.561 195.428C628.518 196.078 627.613 196.927 626.898 197.927C625.453 199.946 624.87 202.457 625.277 204.906C625.683 207.355 627.046 209.542 629.065 210.987C631.084 212.431 633.595 213.014 636.044 212.608L693.211 203.12C695.66 202.713 697.847 201.35 699.291 199.331C700.735 197.312 701.318 194.802 700.911 192.353C700.505 189.904 699.142 187.717 697.124 186.273C695.105 184.828 692.595 184.245 690.146 184.65L632.979 194.138Z"
                fill="#CCCCCC"
            />
            <path
                d="M714.639 24.5967L557.209 50.7247C557.093 50.7443 556.974 50.7409 556.86 50.7147C556.746 50.6884 556.638 50.6399 556.542 50.5718C556.447 50.5037 556.365 50.4174 556.303 50.3178C556.241 50.2183 556.199 50.1075 556.18 49.9917C556.161 49.876 556.165 49.7575 556.191 49.6433C556.218 49.529 556.267 49.4211 556.335 49.3258C556.404 49.2305 556.49 49.1496 556.59 49.0878C556.69 49.0261 556.801 48.9846 556.917 48.9658L714.347 22.8377C714.462 22.8181 714.581 22.8215 714.695 22.8478C714.81 22.874 714.918 22.9226 715.013 22.9907C715.109 23.0588 715.19 23.1451 715.252 23.2446C715.314 23.3442 715.356 23.455 715.375 23.5708C715.394 23.6865 715.391 23.8049 715.364 23.9192C715.337 24.0335 715.288 24.1413 715.22 24.2367C715.151 24.332 715.065 24.4128 714.965 24.4746C714.865 24.5364 714.754 24.5779 714.639 24.5967Z"
                fill="#3F3D56"
            />
            <path
                d="M574.315 40.2167C577.762 40.2167 580.556 37.4227 580.556 33.9761C580.556 30.5294 577.762 27.7354 574.315 27.7354C570.868 27.7354 568.074 30.5294 568.074 33.9761C568.074 37.4227 570.868 40.2167 574.315 40.2167Z"
                fill="#5B98FF"
            />
            <path
                d="M698.617 9.72955L681.027 12.6489C680.794 12.6867 680.555 12.6307 680.364 12.4931C680.172 12.3555 680.043 12.1476 680.004 11.9148C679.966 11.6821 680.021 11.4436 680.158 11.2514C680.295 11.0593 680.502 10.9293 680.735 10.8899L698.325 7.97056C698.558 7.93267 698.796 7.98865 698.988 8.12624C699.179 8.26382 699.309 8.47177 699.347 8.70454C699.386 8.93731 699.331 9.17591 699.194 9.36804C699.057 9.56017 698.849 9.69017 698.617 9.72955Z"
                fill="#3F3D56"
            />
            <path
                d="M699.496 15.0069L681.906 17.9262C681.673 17.964 681.434 17.908 681.243 17.7704C681.051 17.6328 680.922 17.4249 680.883 17.1921C680.845 16.9594 680.9 16.7209 681.037 16.5287C681.174 16.3366 681.381 16.2066 681.614 16.1672L699.204 13.2479C699.436 13.21 699.675 13.2661 699.866 13.4036C700.058 13.5412 700.187 13.7492 700.226 13.9819C700.265 14.2146 700.209 14.4532 700.073 14.6453C699.936 14.8374 699.728 14.9674 699.496 15.0069Z"
                fill="#3F3D56"
            />
            <path
                d="M700.369 20.2842L682.779 23.2036C682.663 23.2231 682.545 23.2197 682.43 23.1934C682.316 23.1671 682.208 23.1186 682.112 23.0505C682.017 22.9824 681.936 22.8961 681.874 22.7966C681.811 22.697 681.77 22.5862 681.75 22.4705C681.731 22.3548 681.735 22.2364 681.762 22.1221C681.788 22.0079 681.837 21.9 681.905 21.8047C681.974 21.7094 682.06 21.6285 682.16 21.5667C682.26 21.5049 682.371 21.4634 682.487 21.4446L700.077 18.5252C700.192 18.5056 700.311 18.509 700.425 18.5353C700.539 18.5616 700.647 18.6101 700.743 18.6782C700.839 18.7463 700.92 18.8326 700.982 18.9321C701.044 19.0317 701.086 19.1425 701.105 19.2583C701.124 19.374 701.12 19.4924 701.094 19.6067C701.067 19.721 701.018 19.8288 700.95 19.9241C700.881 20.0195 700.795 20.1003 700.695 20.1621C700.595 20.2239 700.484 20.2654 700.369 20.2842Z"
                fill="#3F3D56"
            />
            <path
                d="M114.114 145.959H47.2499C45.2407 145.957 43.3146 145.158 41.8939 143.737C40.4732 142.316 39.6741 140.39 39.6719 138.381V70.6249C39.6741 68.6157 40.4732 66.6896 41.8939 65.2689C43.3146 63.8482 45.2407 63.0491 47.2499 63.0469H114.114C116.124 63.0491 118.05 63.8482 119.47 65.2689C120.891 66.6896 121.69 68.6157 121.692 70.6249V138.381C121.69 140.39 120.891 142.316 119.47 143.737C118.05 145.158 116.124 145.957 114.114 145.959Z"
                fill="#5B98FF"
            />
            <path
                d="M109.215 196.33H51.2652C48.3096 196.33 45.475 195.156 43.3851 193.066C41.2952 190.976 40.1211 188.142 40.1211 185.186C40.1211 182.23 41.2952 179.396 43.3851 177.306C45.475 175.216 48.3096 174.042 51.2652 174.042H109.215C112.17 174.042 115.005 175.216 117.095 177.306C119.185 179.396 120.359 182.23 120.359 185.186C120.359 188.142 119.185 190.976 117.095 193.066C115.005 195.156 112.17 196.33 109.215 196.33ZM51.2652 175.825C48.7825 175.825 46.4015 176.811 44.6459 178.567C42.8904 180.322 41.9042 182.703 41.9042 185.186C41.9042 187.669 42.8904 190.05 44.6459 191.805C46.4015 193.561 48.7825 194.547 51.2652 194.547H109.215C111.697 194.547 114.078 193.561 115.834 191.805C117.589 190.05 118.576 187.669 118.576 185.186C118.576 182.703 117.589 180.322 115.834 178.567C114.078 176.811 111.697 175.825 109.215 175.825H51.2652Z"
                fill="#3F3D56"
            />
            <path
                d="M119.913 144.622C119.795 144.623 119.679 144.6 119.571 144.555C119.463 144.51 119.365 144.444 119.282 144.361L40.8276 65.9068C40.7439 65.8242 40.6775 65.7258 40.632 65.6174C40.5865 65.509 40.5629 65.3927 40.5625 65.2752C40.5621 65.1576 40.585 65.0411 40.6299 64.9325C40.6747 64.8238 40.7406 64.7251 40.8237 64.6419C40.9068 64.5588 41.0056 64.493 41.1142 64.4482C41.2229 64.4034 41.3394 64.3805 41.4569 64.3809C41.5745 64.3812 41.6908 64.4049 41.7992 64.4504C41.9076 64.4959 42.0059 64.5624 42.0885 64.6461L120.543 143.101C120.668 143.225 120.753 143.384 120.787 143.557C120.821 143.73 120.804 143.909 120.736 144.072C120.669 144.235 120.554 144.374 120.408 144.472C120.261 144.57 120.089 144.622 119.913 144.622Z"
                fill="white"
            />
            <path
                d="M41.4579 144.622C41.2816 144.622 41.1092 144.57 40.9626 144.472C40.816 144.374 40.7018 144.235 40.6343 144.072C40.5668 143.909 40.5491 143.73 40.5835 143.557C40.6179 143.384 40.7028 143.225 40.8274 143.101L119.282 64.6461C119.365 64.5624 119.463 64.4959 119.571 64.4504C119.68 64.4049 119.796 64.3812 119.913 64.3809C120.031 64.3805 120.148 64.4034 120.256 64.4482C120.365 64.493 120.464 64.5588 120.547 64.6419C120.63 64.7251 120.696 64.8238 120.741 64.9325C120.785 65.0411 120.808 65.1576 120.808 65.2751C120.808 65.3927 120.784 65.509 120.738 65.6174C120.693 65.7258 120.626 65.8241 120.543 65.9067L42.0883 144.361C42.0056 144.444 41.9074 144.51 41.7992 144.555C41.691 144.6 41.575 144.623 41.4579 144.622Z"
                fill="white"
            />
            <path
                d="M730.207 235.728C730.62 234.39 730.734 232.978 730.542 231.591C730.35 230.204 729.857 228.876 729.096 227.7C728.335 226.525 727.326 225.531 726.139 224.787C724.953 224.044 723.617 223.57 722.228 223.399L676.463 169.922L665.789 181.129L711.374 232.404C711.24 234.758 711.975 237.078 713.439 238.926C714.902 240.774 716.993 242.021 719.314 242.431C721.636 242.841 724.027 242.385 726.034 241.149C728.042 239.914 729.527 237.985 730.207 235.728Z"
                fill="#A0616A"
            />
            <path
                d="M689.725 181.187L673.366 193.143C672.9 193.483 672.367 193.719 671.802 193.834C671.237 193.95 670.654 193.942 670.093 193.812C669.531 193.682 669.004 193.432 668.548 193.08C668.091 192.728 667.716 192.281 667.448 191.771L658.047 173.891C656.32 171.499 655.612 168.521 656.077 165.608C656.543 162.695 658.145 160.086 660.531 158.353C662.918 156.619 665.895 155.903 668.809 156.361C671.723 156.818 674.336 158.413 676.076 160.795L690.215 175.132C690.619 175.542 690.931 176.035 691.128 176.577C691.325 177.119 691.403 177.697 691.356 178.271C691.31 178.846 691.14 179.404 690.858 179.907C690.577 180.41 690.19 180.847 689.725 181.187Z"
                fill="#5B98FF"
            />
            <path
                d="M658.155 145.46C670.248 145.46 680.052 135.656 680.052 123.563C680.052 111.47 670.248 101.666 658.155 101.666C646.061 101.666 636.258 111.47 636.258 123.563C636.258 135.656 646.061 145.46 658.155 145.46Z"
                fill="#A0616A"
            />
            <path
                d="M667.666 222.351C667.439 222.352 667.212 222.333 666.988 222.295L628.568 215.828C627.642 215.674 626.8 215.199 626.189 214.488C625.577 213.776 625.235 212.872 625.222 211.934C625.105 203.144 625.763 180.955 634.374 164.794C637.068 159.742 641.504 155.841 646.858 153.815C652.213 151.789 658.12 151.777 663.483 153.782C668.845 155.786 673.297 159.669 676.011 164.71C678.724 169.751 679.515 175.606 678.235 181.185C675.352 193.6 673.149 206.162 671.635 218.817C671.519 219.789 671.052 220.685 670.321 221.336C669.589 221.987 668.645 222.348 667.666 222.351Z"
                fill="#2F2E41"
            />
            <path
                d="M587.114 150.252C587.224 150.733 587.295 151.222 587.328 151.714L625.625 173.808L634.934 168.449L644.858 181.44L629.3 192.529C628.044 193.425 626.53 193.889 624.987 193.851C623.444 193.813 621.955 193.276 620.743 192.32L581.252 161.165C579.469 161.825 577.529 161.926 575.687 161.456C573.846 160.986 572.191 159.966 570.944 158.533C569.696 157.099 568.914 155.32 568.703 153.431C568.491 151.543 568.859 149.634 569.759 147.96C570.658 146.286 572.046 144.925 573.737 144.059C575.429 143.193 577.344 142.862 579.228 143.111C581.112 143.36 582.876 144.176 584.285 145.452C585.693 146.727 586.68 148.401 587.114 150.252Z"
                fill="#A0616A"
            />
            <path
                d="M626.152 171.6C626.267 171.035 626.503 170.502 626.843 170.036C627.184 169.571 627.62 169.184 628.123 168.903L645.698 159.076C648.033 157.274 650.987 156.471 653.913 156.844C656.839 157.217 659.498 158.735 661.306 161.065C663.115 163.395 663.926 166.347 663.562 169.273C663.197 172.2 661.687 174.863 659.362 176.678L645.35 191.229C644.95 191.645 644.465 191.969 643.929 192.18C643.392 192.391 642.816 192.484 642.241 192.452C641.665 192.421 641.103 192.265 640.593 191.997C640.083 191.729 639.636 191.354 639.284 190.897L626.906 174.855C626.554 174.399 626.304 173.872 626.174 173.31C626.044 172.748 626.036 172.165 626.152 171.6Z"
                fill="#5B98FF"
            />
            <path d="M607.609 418.737H596.678L594.105 376.715L607.61 376.578L607.609 418.737Z" fill="#A0616A" />
            <path
                d="M610.395 429.331L575.152 429.33V428.884C575.152 427.083 575.507 425.299 576.196 423.635C576.886 421.971 577.896 420.458 579.17 419.185C580.444 417.911 581.956 416.9 583.62 416.211C585.285 415.522 587.068 415.167 588.87 415.167L610.396 415.168L610.395 429.331Z"
                fill="#2F2E41"
            />
            <path d="M711.919 418.737H700.988L695.789 376.578H711.92L711.919 418.737Z" fill="#A0616A" />
            <path
                d="M714.704 429.331L679.461 429.33V428.884C679.461 427.083 679.816 425.299 680.505 423.635C681.194 421.971 682.205 420.458 683.479 419.185C684.752 417.911 686.265 416.9 687.929 416.211C689.593 415.522 691.377 415.167 693.178 415.167L714.704 415.168L714.704 429.331Z"
                fill="#2F2E41"
            />
            <path
                d="M699.49 396.874C698.658 396.872 697.847 396.613 697.168 396.132C696.489 395.651 695.976 394.972 695.698 394.188L660.867 294.669C660.733 294.288 660.499 293.95 660.188 293.692C659.877 293.434 659.503 293.264 659.103 293.203C658.704 293.141 658.296 293.189 657.922 293.341C657.548 293.494 657.222 293.745 656.98 294.068L623.003 339.37C622.739 339.724 622.552 340.129 622.455 340.56L611.628 388.863C611.434 389.721 610.964 390.492 610.29 391.058C609.616 391.623 608.775 391.952 607.896 391.993L594.928 392.582C594.369 392.611 593.81 392.52 593.289 392.317C592.767 392.114 592.294 391.802 591.901 391.403C591.507 391.006 591.2 390.532 591 390.009C590.8 389.487 590.711 388.929 590.739 388.37L593.001 344.282C593.714 330.02 597.389 316.062 603.791 303.297C618.024 274.915 626.259 243.906 627.983 212.203L628.01 211.709L667.908 218.057L673.897 226.35C676.57 230.091 679.465 233.668 682.567 237.062C690.195 245.332 692.484 256.393 693.062 264.214C693.809 273.827 695.17 283.383 697.137 292.822L716.923 390.054C717.071 390.606 717.1 391.183 717.007 391.747C716.914 392.311 716.702 392.849 716.384 393.324C716.066 393.799 715.651 394.201 715.165 394.502C714.679 394.804 714.135 394.998 713.568 395.072L700.004 396.841C699.833 396.863 699.662 396.875 699.49 396.874Z"
                fill="#2F2E41"
            />
            <path
                d="M682.367 108.365C680.628 103.092 679.344 97.6799 678.529 92.1878C678.273 88.9903 679.092 85.5498 681.421 83.3437C685.779 79.2149 693.183 81.1814 697.74 85.0889C704.327 90.736 707.611 99.4146 708.853 108.001C710.094 116.588 709.548 125.319 709.847 133.99C710.146 142.661 711.386 151.576 715.806 159.042C720.227 166.507 728.43 172.237 737.083 171.602C740.575 171.413 743.891 170.008 746.456 167.63C747.715 166.432 748.668 164.95 749.236 163.308C749.804 161.666 749.97 159.911 749.72 158.192C754.142 166.111 751.901 176.843 745.304 183.069C738.708 189.294 728.561 191.054 719.889 188.396C711.217 185.738 704.08 179.073 699.817 171.068C695.554 163.062 693.991 153.814 694.218 144.746C694.392 137.784 695.575 130.764 694.399 123.898C693.222 117.033 688.926 110.063 682.151 108.446L682.367 108.365Z"
                fill="#2F2E41"
            />
            <path
                d="M651.943 117.389C650.788 121.248 646.37 123.628 642.395 122.975C638.421 122.322 635.152 119.049 633.944 115.207C632.853 111.282 633.3 107.089 635.194 103.483C636.238 101.321 637.698 99.3865 639.491 97.7899C641.283 96.1933 643.373 94.9658 645.641 94.1777C647.921 93.4221 650.349 93.2255 652.721 93.6045C655.094 93.9836 657.34 94.9272 659.271 96.3558C659.477 95.4889 659.91 94.6925 660.526 94.0486C661.141 93.4047 661.917 92.9365 662.774 92.6923C664.499 92.2273 666.32 92.2542 668.031 92.7699C672.961 94.1747 677.233 97.2823 680.087 101.54C682.904 105.785 684.769 110.59 685.551 115.624C686.896 123.174 686.399 131.424 682.159 137.814C677.919 144.204 669.244 147.977 662.206 144.931C661.767 142.688 662.807 140.429 664.009 138.485C665.212 136.541 666.638 134.647 667.1 132.408C667.562 130.169 666.676 127.431 664.51 126.699C662.663 126.074 660.693 127.086 658.747 127.208C657.641 127.277 656.537 127.055 655.545 126.563C654.553 126.071 653.708 125.327 653.094 124.405C652.48 123.483 652.12 122.416 652.048 121.311C651.977 120.205 652.198 119.101 652.689 118.108L651.943 117.389Z"
                fill="#2F2E41"
            />
            <path
                d="M812.911 429.911H473.239C473.003 429.911 472.776 429.817 472.609 429.65C472.442 429.483 472.348 429.256 472.348 429.019C472.348 428.783 472.442 428.556 472.609 428.389C472.776 428.222 473.003 428.128 473.239 428.128H812.911C813.148 428.128 813.375 428.222 813.542 428.389C813.709 428.556 813.803 428.783 813.803 429.019C813.803 429.256 813.709 429.483 813.542 429.65C813.375 429.817 813.148 429.911 812.911 429.911Z"
                fill="#CCCCCC"
            />
        </svg>