<svg width="166" height="114" viewBox="0 0 166 114" fill="none" xmlns="http://www.w3.org/2000/svg">
<path d="M118.63 114V21.9857H90.3049V0H166V21.9857H136.943V114H118.63Z" fill="#98838F"/>
<path d="M0 114V0H41.5102C47.8589 0 53.1901 1.14 57.5039 3.42001C61.8991 5.59143 65.2362 8.79429 67.5152 13.0286C69.7942 17.2629 70.9337 22.3114 70.9337 28.1743C70.9337 34.58 69.5907 40.0086 66.9047 44.46C64.3002 48.8029 60.4747 51.7886 55.4284 53.4171L55.6726 50.3229C59.3352 51.5171 62.6723 53.4171 65.6838 56.0229C68.6954 58.52 71.0558 61.7771 72.765 65.7943C74.5556 69.8114 75.451 74.48 75.451 79.8C75.451 85.88 74.5963 91.1457 72.8871 95.5971C71.1779 99.94 68.8175 103.469 65.8059 106.183C62.7944 108.789 59.3759 110.743 55.5505 112.046C51.8064 113.349 47.7775 114 43.4637 114H0ZM17.5808 92.8286H43.2195C46.0682 92.8286 48.51 92.34 50.5448 91.3629C52.661 90.3857 54.2889 88.8114 55.4284 86.64C56.6493 84.4686 57.2597 81.8629 57.2597 78.8229C57.2597 75.5657 56.5679 72.96 55.1842 71.0057C53.8005 69.0514 52.0099 67.64 49.8123 66.7714C47.6147 65.7943 45.2136 65.3057 42.609 65.3057H17.5808V92.8286ZM17.5808 45.9257H40.5335C42.8939 45.9257 45.0101 45.3829 46.8821 44.2971C48.7542 43.2114 50.1786 41.7457 51.1553 39.9C52.2134 38.0543 52.7424 35.8829 52.7424 33.3857C52.7424 29.26 51.5622 26.22 49.2018 24.2657C46.8415 22.2029 43.6264 21.1714 39.5568 21.1714H17.5808V45.9257Z" fill="#98838F"/>
</svg>
